{
  "asset": {
    "version": "2.0",
    "generator": "THREE.GLTFExporter"
  },
  "scenes": [
    {
      "nodes": [
        2
      ],
      "name": "AuxScene"
    }
  ],
  "scene": 0,
  "nodes": [
    {
      "name": "Path 0",
      "mesh": 0
    },
    {
      "name": "Path 1",
      "mesh": 1
    },
    {
      "children": [
        0,
        1
      ]
    }
  ],
  "bufferViews": [
    {
      "buffer": 0,
      "byteOffset": 0,
      "byteLength": 645120,
      "target": 34962,
      "byteStride": 12
    },
    {
      "buffer": 0,
      "byteOffset": 645120,
      "byteLength": 645120,
      "target": 34962,
      "byteStride": 12
    },
    {
      "buffer": 0,
      "byteOffset": 1290240,
      "byteLength": 430080,
      "target": 34962,
      "byteStride": 8
    },
    {
      "buffer": 0,
      "byteOffset": 1720320,
      "byteLength": 35808,
      "target": 34963
    },
    {
      "buffer": 0,
      "byteOffset": 1756128,
      "byteLength": 35820,
      "target": 34963
    },
    {
      "buffer": 0,
      "byteOffset": 1791948,
      "byteLength": 35892,
      "target": 34963
    },
    {
      "buffer": 0,
      "byteOffset": 1827840,
      "byteLength": 169344,
      "target": 34962,
      "byteStride": 12
    },
    {
      "buffer": 0,
      "byteOffset": 1997184,
      "byteLength": 169344,
      "target": 34962,
      "byteStride": 12
    },
    {
      "buffer": 0,
      "byteOffset": 2166528,
      "byteLength": 112896,
      "target": 34962,
      "byteStride": 8
    },
    {
      "buffer": 0,
      "byteOffset": 2279424,
      "byteLength": 9408,
      "target": 34963
    },
    {
      "buffer": 0,
      "byteOffset": 2288832,
      "byteLength": 9408,
      "target": 34963
    },
    {
      "buffer": 0,
      "byteOffset": 2298240,
      "byteLength": 9408,
      "target": 34963
    }
  ],
  "buffers": [
    {
      "byteLength": 2307648,
      "uri": "data:application/octet-stream;base64,"
    }
  ],
  "accessors": [
    {
      "bufferView": 0,
      "componentType": 5126,
      "count": 53760,
      "max": [
        -358.9256591796875,
        -155.87127685546875,
        53.13749313354492
      ],
      "min": [
        -674.7901000976562,
        -820.67724609375,
        -53.13749313354492
      ],
      "type": "VEC3"
    },
    {
      "bufferView": 1,
      "componentType": 5126,
      "count": 53760,
      "max": [
        1,
        1,
        1
      ],
      "min": [
        -1,
        -1,
        -1
      ],
      "type": "VEC3"
    },
    {
      "bufferView": 2,
      "componentType": 5126,
      "count": 53760,
      "max": [
        0.42695701122283936,
        1
      ],
      "min": [
        0,
        0.13465699553489685
      ],
      "type": "VEC2"
    },
    {
      "bufferView": 3,
      "componentType": 5123,
      "count": 17904,
      "max": [
        17903
      ],
      "min": [
        0
      ],
      "type": "SCALAR"
    },
    {
      "bufferView": 4,
      "componentType": 5123,
      "count": 17910,
      "max": [
        35813
      ],
      "min": [
        17904
      ],
      "type": "SCALAR"
    },
    {
      "bufferView": 5,
      "componentType": 5123,
      "count": 17946,
      "max": [
        53759
      ],
      "min": [
        35814
      ],
      "type": "SCALAR"
    },
    {
      "bufferView": 6,
      "componentType": 5126,
      "count": 14112,
      "max": [
        -346.7772216796875,
        -224.21768188476562,
        53.13749313354492
      ],
      "min": [
        -733.2227783203125,
        -924.1287231445312,
        -53.13749313354492
      ],
      "type": "VEC3"
    },
    {
      "bufferView": 7,
      "componentType": 5126,
      "count": 14112,
      "max": [
        0.9999949932098389,
        0.999638020992279,
        1
      ],
      "min": [
        -0.9995350241661072,
        -0.9999799728393555,
        -1
      ],
      "type": "VEC3"
    },
    {
      "bufferView": 8,
      "componentType": 5126,
      "count": 14112,
      "max": [
        0.5030159950256348,
        1
      ],
      "min": [
        0,
        0
      ],
      "type": "VEC2"
    },
    {
      "bufferView": 9,
      "componentType": 5123,
      "count": 4704,
      "max": [
        4703
      ],
      "min": [
        0
      ],
      "type": "SCALAR"
    },
    {
      "bufferView": 10,
      "componentType": 5123,
      "count": 4704,
      "max": [
        9407
      ],
      "min": [
        4704
      ],
      "type": "SCALAR"
    },
    {
      "bufferView": 11,
      "componentType": 5123,
      "count": 4704,
      "max": [
        14111
      ],
      "min": [
        9408
      ],
      "type": "SCALAR"
    }
  ],
  "materials": [
    {
      "pbrMetallicRoughness": {
        "metallicFactor": 0.5,
        "roughnessFactor": 0.5
      },
      "name": "Shiny_Light"
    },
    {
      "pbrMetallicRoughness": {
        "metallicFactor": 0.5,
        "roughnessFactor": 0.5
      },
      "name": "Bevel_2"
    },
    {
      "pbrMetallicRoughness": {
        "metallicFactor": 0.5,
        "roughnessFactor": 0.5
      },
      "name": "Shiny"
    }
  ],
  "meshes": [
    {
      "primitives": [
        {
          "mode": 4,
          "attributes": {
            "POSITION": 0,
            "NORMAL": 1,
            "TEXCOORD_0": 2
          },
          "indices": 3,
          "material": 0
        },
        {
          "mode": 4,
          "attributes": {
            "POSITION": 0,
            "NORMAL": 1,
            "TEXCOORD_0": 2
          },
          "indices": 4,
          "material": 1
        },
        {
          "mode": 4,
          "attributes": {
            "POSITION": 0,
            "NORMAL": 1,
            "TEXCOORD_0": 2
          },
          "indices": 5,
          "material": 2
        }
      ]
    },
    {
      "primitives": [
        {
          "mode": 4,
          "attributes": {
            "POSITION": 6,
            "NORMAL": 7,
            "TEXCOORD_0": 8
          },
          "indices": 9,
          "material": 0
        },
        {
          "mode": 4,
          "attributes": {
            "POSITION": 6,
            "NORMAL": 7,
            "TEXCOORD_0": 8
          },
          "indices": 10,
          "material": 1
        },
        {
          "mode": 4,
          "attributes": {
            "POSITION": 6,
            "NORMAL": 7,
            "TEXCOORD_0": 8
          },
          "indices": 11,
          "material": 2
        }
      ]
    }
  ]
}