<?xml version="1.0" encoding="utf-8"?>
<!-- Generator: Adobe Illustrator 16.0.0, SVG Export Plug-In . SVG Version: 6.00 Build 0)  -->
<!DOCTYPE svg PUBLIC "-//W3C//DTD SVG 1.1//EN" "http://www.w3.org/Graphics/SVG/1.1/DTD/svg11.dtd">
<svg version="1.1" id="Layer_1" xmlns="http://www.w3.org/2000/svg" xmlns:xlink="http://www.w3.org/1999/xlink" x="0px" y="0px"
	 width="1000px" height="1000px" viewBox="0 0 1000 1000" enable-background="new 0 0 1000 1000" xml:space="preserve">
<g>
	<path d="M392.007,366.316c23.222,7.146,35.726,2.382,35.726-7.145c0-9.527-17.863-10.718-30.962-19.054
		c-13.1-8.336-36.917-29.771-29.771-51.662c7.146-21.89,24.331-21.536,41.68-23.362c16.358-1.722,39.979,4.042,59.596,12.692v30.144
		l-13.807,13.807c-0.265,0.264-0.265,0.69,0,0.954l13.807,13.806v17.33l-13.807,13.806c-0.265,0.265-0.265,0.691,0,0.955
		l13.807,13.806v27.986c-2.068,0.386-4.1,0.832-6.064,1.36c-23.977,6.451-39.419,35.378-39.501,54.244
		c-0.085,18.865,4.081,31.135,8.623,39.6c4.544,8.469,13.171,11.956,16.716-5.641c3.547-17.598,9.556-27.502,19.878-30.199
		c0.11-0.029,0.23-0.057,0.349-0.084v44.886c-2.068,0.386-4.1,0.832-6.064,1.36c-23.977,6.451-39.419,35.378-39.501,54.243
		c-0.085,18.865,4.081,31.135,8.623,39.601c4.544,8.468,13.171,11.954,16.716-5.641c3.547-17.598,9.556-27.504,19.878-30.199
		c0.11-0.028,0.23-0.057,0.349-0.084v51.608l-13.807,13.807c-0.265,0.264-0.265,0.691,0,0.955l21.229,21.228
		c0.265,0.264,0.69,0.264,0.954,0l21.23-21.228c0.262-0.264,0.262-0.691,0-0.955l-13.809-13.808v-53.046
		c8.54-0.329,18.671-0.364,27.019-0.222c0,73.696,0,139.141,0,140.688c0,11.908-16.672,28.581-25.008,44.062
		c-8.336,15.481-13.1,28.579,25.008,13.1c16.804-6.826,34.368-16.009,41.68-22.148c13.391-11.243,23.817-18.341,23.817-62.402
		c0-48.824,0-320.338,0-320.338s-0.148-15.928,0-20.245c0.149-4.317,9.619-28.878,9.526-40.488c-0.038-4.911,0.103-33.344-33.344,0
		c-27,26.917-34.534,38.104-34.534,38.104s-7.146,8.339-7.146,22.629c0,0,0,17.26,0,44.079c-6.713-0.582-16.641-1.128-27.019-0.601
		v-26.208l13.809-13.807c0.262-0.264,0.262-0.69,0-0.955l-13.809-13.808v-17.327l13.809-13.807c0.262-0.264,0.262-0.69,0-0.954
		l-13.809-13.808V283.72c22.156,5.921,54.736,6.505,73.462-4.335c22.626-13.1,66.688-72.643,66.688-72.643
		c4.761-6.292-2.382-16.755-23.714-2.382c-21.334,14.374-71.554,17.863-105.934,2.382c-3.245-1.461-6.761-2.869-10.502-4.2v-43.401
		c7.441-3.104,12.688-10.452,12.688-19.005c0-11.351-9.235-20.586-20.587-20.586c-11.351,0-20.585,9.235-20.585,20.586
		c0,8.553,5.245,15.9,12.686,19.005v38.614c-35.303-9.007-82.31-10.564-116.757,8.986c-44.061,25.008-38.106,81.714-23.844,109.559
		C343.486,347.171,376.735,361.617,392.007,366.316z M511.092,468.001c0,14.5,0,29.793,0,45.369
		c-6.713-0.582-16.641-1.128-27.019-0.601v-44.548C492.613,467.893,502.744,467.858,511.092,468.001z"/>
	<path d="M674.238,189.986c0,0-32.152,22.709-55.97,48.909c-23.817,26.198-20.244,52.397-20.244,52.397
		s-1.191,388.217-1.191,454.905c0,66.688-55.97,97.65-102.427,98.841c-30.966,0.794-121.453-5.954-141.697-58.352
		c-22.004-56.952,17.067-91.1,22.626-93.837c6.362-3.136,20.245-1.432,16.672-8.576c-3.572-7.146-6.293-4.981-19.054-23.817
		c-13.383-19.758-52.397-86.932-60.733-88.123c-8.336-1.19-10.718,5.955,0,30.963s-3.572,147.665,0,171.482
		c3.573,23.816,19.054,105.63,171.482,105.63s181.01-100.867,181.01-141.355c0-19.702,0-379.881,0-379.881s0-90.505,0-100.032
		c0-9.526,19.054-44.062,19.054-44.062C700.78,179.418,674.238,189.986,674.238,189.986z"/>
</g>
</svg>
