<?xml version="1.0" encoding="utf-8"?>
<!-- Generator: Adobe Illustrator 16.0.0, SVG Export Plug-In . SVG Version: 6.00 Build 0)  -->
<!DOCTYPE svg PUBLIC "-//W3C//DTD SVG 1.1//EN" "http://www.w3.org/Graphics/SVG/1.1/DTD/svg11.dtd">
<svg version="1.1" id="Calque_1" xmlns="http://www.w3.org/2000/svg" xmlns:xlink="http://www.w3.org/1999/xlink" x="0px" y="0px"
	 width="800px" height="800px" viewBox="0 0 800 800" enable-background="new 0 0 800 800" xml:space="preserve">
<path fill="#FFFFFF" d="M623.05,311.71L409.3,89.07c-2.27-2.37-5.41-3.71-8.69-3.71c-3.29,0-6.43,1.34-8.7,3.71L178.16,311.7
	c-63.36,65.97-63.36,173.34,0,239.33c30.76,32.04,71.72,49.689,115.32,49.689c16.01,0,31.84-2.43,47-7.14L277.25,696.5
	c-2.28,3.72-2.38,8.38-0.25,12.19c2.13,3.81,6.15,6.17,10.52,6.17h231.42c0.01,0,0.02,0,0.02,0c6.66,0,12.06-5.4,12.06-12.051
	c0-2.699-0.89-5.189-2.39-7.199l-66.28-101.53c14.67,4.39,29.94,6.65,45.381,6.65h0.01c43.59,0,84.55-17.65,115.31-49.69
	C686.42,485.04,686.42,377.68,623.05,311.71z M402.588,469.595c-41.419,0-74.996-33.577-74.996-74.996s33.577-74.996,74.996-74.996
	s74.996,33.577,74.996,74.996S444.007,469.595,402.588,469.595z"/>
</svg>
