<?xml version="1.0" encoding="utf-8"?>
<!-- Generator: Adobe Illustrator 16.0.0, SVG Export Plug-In . SVG Version: 6.00 Build 0)  -->
<!DOCTYPE svg PUBLIC "-//W3C//DTD SVG 1.1//EN" "http://www.w3.org/Graphics/SVG/1.1/DTD/svg11.dtd">
<svg version="1.1" id="Calque_1" xmlns="http://www.w3.org/2000/svg" xmlns:xlink="http://www.w3.org/1999/xlink" x="0px" y="0px"
	 width="792px" height="612px" viewBox="0 0 792 612" enable-background="new 0 0 792 612" xml:space="preserve">
<g>
	<path d="M137.508,165.257h22.55l13.42,44.55l14.85-44.77h18.37l14.85,44.77l13.42-44.55h22.11l-25.74,77.55h-18.59l-15.4-44.33
		l-15.51,44.33h-18.59L137.508,165.257z"/>
	<path d="M265.547,165.257h61.93v18.04h-40.81v11.77h36.96v16.83h-36.96v12.21h41.36v18.15h-62.48V165.257z"/>
	<path d="M339.027,165.257h21.34v58.3h37.29v18.7h-58.63V165.257z"/>
	<path d="M444.076,243.797c-5.5,0-10.67-0.99-15.51-2.97s-9.039-4.747-12.596-8.305c-3.558-3.556-6.38-7.772-8.47-12.65
		c-2.09-4.876-3.135-10.175-3.135-15.895v-0.22c0-5.572,1.007-10.797,3.025-15.675c2.016-4.876,4.84-9.13,8.47-12.76
		s7.901-6.471,12.814-8.525c4.912-2.052,10.303-3.08,16.17-3.08c3.961,0,7.553,0.385,10.78,1.155c3.227,0.77,6.178,1.87,8.855,3.3
		c2.676,1.43,5.096,3.118,7.26,5.06c2.162,1.944,4.087,4.089,5.775,6.435l-16.061,12.43c-2.2-2.712-4.62-4.895-7.26-6.545
		s-5.83-2.475-9.57-2.475c-2.714,0-5.188,0.533-7.425,1.595c-2.238,1.064-4.163,2.53-5.775,4.4c-1.613,1.87-2.879,4.053-3.795,6.545
		c-0.918,2.494-1.375,5.134-1.375,7.92v0.22c0,2.86,0.457,5.555,1.375,8.085c0.916,2.53,2.182,4.713,3.795,6.545
		c1.612,1.834,3.537,3.283,5.775,4.345c2.236,1.064,4.711,1.595,7.425,1.595c1.98,0,3.795-0.22,5.445-0.66
		c1.649-0.44,3.152-1.081,4.51-1.925c1.356-0.842,2.64-1.832,3.851-2.97c1.21-1.136,2.4-2.401,3.574-3.795l16.061,11.44
		c-1.834,2.494-3.833,4.804-5.995,6.93c-2.164,2.128-4.62,3.96-7.37,5.5s-5.812,2.75-9.185,3.63
		C452.143,243.357,448.328,243.797,444.076,243.797z"/>
	<path d="M526.135,243.797c-5.94,0-11.44-1.045-16.5-3.135c-5.061-2.09-9.424-4.931-13.091-8.525
		c-3.667-3.592-6.545-7.81-8.635-12.65s-3.135-10.01-3.135-15.51v-0.22c0-5.5,1.045-10.687,3.135-15.565
		c2.09-4.876,5.005-9.13,8.745-12.76c3.74-3.63,8.14-6.49,13.2-8.58c5.06-2.09,10.56-3.135,16.5-3.135
		c5.939,0,11.439,1.045,16.5,3.135c5.06,2.09,9.422,4.933,13.09,8.525c3.666,3.594,6.545,7.81,8.635,12.65s3.136,10.01,3.136,15.51
		v0.22c0,5.5-1.046,10.689-3.136,15.565c-2.09,4.878-5.005,9.13-8.745,12.76c-3.739,3.63-8.14,6.49-13.199,8.58
		C537.574,242.752,532.074,243.797,526.135,243.797z M526.354,224.547c2.932,0,5.591-0.55,7.975-1.65
		c2.383-1.1,4.417-2.585,6.105-4.455c1.686-1.87,3.006-4.051,3.96-6.545c0.952-2.492,1.43-5.132,1.43-7.92v-0.22
		c0-2.786-0.478-5.445-1.43-7.975c-0.954-2.53-2.293-4.747-4.016-6.655c-1.724-1.906-3.795-3.41-6.215-4.51s-5.098-1.65-8.029-1.65
		c-2.935,0-5.61,0.55-8.03,1.65s-4.474,2.585-6.16,4.455c-1.688,1.87-3.008,4.053-3.96,6.545c-0.954,2.494-1.43,5.134-1.43,7.92
		v0.22c0,2.788,0.476,5.428,1.43,7.92c0.952,2.494,2.31,4.694,4.07,6.6c1.76,1.908,3.85,3.429,6.27,4.565
		C520.744,223.979,523.421,224.547,526.354,224.547z"/>
	<path d="M578.714,165.257h22.55l18.37,29.81l18.37-29.81h22.55v77h-21.23v-44.22l-19.689,30.14h-0.44l-19.58-30.03v44.11h-20.899
		V165.257z"/>
	<path d="M674.193,165.257h61.93v18.04h-40.81v11.77h36.96v16.83h-36.96v12.21h41.359v18.15h-62.479V165.257z"/>
</g>
</svg>
